<mxfile host="app.diagrams.net" modified="2023-06-19T04:10:07.351Z" agent="Mozilla/5.0 (Macintosh; Intel Mac OS X 10_15_7) AppleWebKit/537.36 (KHTML, like Gecko) Chrome/114.0.0.0 Safari/537.36" etag="HEXSWAYAHEEoSLx4bv_j" version="21.4.0" type="github">
  <diagram name="Page-1" id="S_VMc3f9QzT-krZpT3vm">
    <mxGraphModel dx="1026" dy="612" grid="1" gridSize="10" guides="1" tooltips="1" connect="1" arrows="1" fold="1" page="1" pageScale="1" pageWidth="827" pageHeight="1169" math="0" shadow="0">
      <root>
        <mxCell id="0" />
        <mxCell id="1" parent="0" />
        <mxCell id="q9Hn70hhjZPMbS5lLQ8r-1" value="&lt;h1&gt;Rough Flow:&lt;/h1&gt;" style="text;html=1;strokeColor=none;fillColor=none;spacing=5;spacingTop=-20;whiteSpace=wrap;overflow=hidden;rounded=0;" vertex="1" parent="1">
          <mxGeometry y="10" width="500" height="60" as="geometry" />
        </mxCell>
        <mxCell id="q9Hn70hhjZPMbS5lLQ8r-67" style="edgeStyle=orthogonalEdgeStyle;rounded=0;orthogonalLoop=1;jettySize=auto;html=1;entryX=0;entryY=0.25;entryDx=0;entryDy=0;" edge="1" parent="1" source="q9Hn70hhjZPMbS5lLQ8r-2" target="q9Hn70hhjZPMbS5lLQ8r-3">
          <mxGeometry relative="1" as="geometry" />
        </mxCell>
        <mxCell id="q9Hn70hhjZPMbS5lLQ8r-2" value="user" style="shape=umlActor;verticalLabelPosition=bottom;verticalAlign=top;html=1;outlineConnect=0;" vertex="1" parent="1">
          <mxGeometry x="60" y="160" width="30" height="60" as="geometry" />
        </mxCell>
        <mxCell id="q9Hn70hhjZPMbS5lLQ8r-3" value="city(location)" style="rounded=1;whiteSpace=wrap;html=1;" vertex="1" parent="1">
          <mxGeometry x="140" y="190" width="70" height="30" as="geometry" />
        </mxCell>
        <mxCell id="q9Hn70hhjZPMbS5lLQ8r-4" value="m3" style="verticalLabelPosition=bottom;verticalAlign=top;html=1;shadow=0;dashed=0;strokeWidth=1;shape=mxgraph.ios.iBgMap;strokeColor=#18211b;strokeColor2=#008cff;fillColor2=#96D1FF;" vertex="1" parent="1">
          <mxGeometry x="280" y="90" width="30" height="50" as="geometry" />
        </mxCell>
        <mxCell id="q9Hn70hhjZPMbS5lLQ8r-6" value="m1" style="verticalLabelPosition=bottom;verticalAlign=top;html=1;shadow=0;dashed=0;strokeWidth=1;shape=mxgraph.ios.iBgMap;strokeColor=#18211b;strokeColor2=#008cff;fillColor2=#96D1FF;" vertex="1" parent="1">
          <mxGeometry x="280" y="250" width="30" height="50" as="geometry" />
        </mxCell>
        <mxCell id="q9Hn70hhjZPMbS5lLQ8r-9" value="m2" style="verticalLabelPosition=bottom;verticalAlign=top;html=1;shadow=0;dashed=0;strokeWidth=1;shape=mxgraph.ios.iBgMap;strokeColor=#18211b;strokeColor2=#008cff;fillColor2=#96D1FF;" vertex="1" parent="1">
          <mxGeometry x="280" y="165" width="30" height="55" as="geometry" />
        </mxCell>
        <mxCell id="q9Hn70hhjZPMbS5lLQ8r-14" value="" style="endArrow=open;html=1;strokeWidth=1;endFill=0;endSize=20;rounded=0;" edge="1" parent="1">
          <mxGeometry width="100" relative="1" as="geometry">
            <mxPoint x="210" y="194.5" as="sourcePoint" />
            <mxPoint x="280" y="195" as="targetPoint" />
          </mxGeometry>
        </mxCell>
        <mxCell id="q9Hn70hhjZPMbS5lLQ8r-15" value="" style="endArrow=open;html=1;strokeWidth=1;endFill=0;endSize=20;rounded=0;entryX=-0.133;entryY=0.66;entryDx=0;entryDy=0;entryPerimeter=0;" edge="1" parent="1" target="q9Hn70hhjZPMbS5lLQ8r-4">
          <mxGeometry width="100" relative="1" as="geometry">
            <mxPoint x="210" y="190" as="sourcePoint" />
            <mxPoint x="300" y="90" as="targetPoint" />
          </mxGeometry>
        </mxCell>
        <mxCell id="q9Hn70hhjZPMbS5lLQ8r-16" value="" style="endArrow=open;html=1;strokeWidth=1;endFill=0;endSize=20;rounded=0;entryX=0.133;entryY=0.2;entryDx=0;entryDy=0;entryPerimeter=0;" edge="1" parent="1" target="q9Hn70hhjZPMbS5lLQ8r-6">
          <mxGeometry width="100" relative="1" as="geometry">
            <mxPoint x="210" y="220" as="sourcePoint" />
            <mxPoint x="280" y="220.5" as="targetPoint" />
            <Array as="points" />
          </mxGeometry>
        </mxCell>
        <mxCell id="q9Hn70hhjZPMbS5lLQ8r-17" value="movies" style="text;html=1;align=center;verticalAlign=middle;resizable=0;points=[];autosize=1;strokeColor=none;fillColor=none;" vertex="1" parent="1">
          <mxGeometry x="250" y="308" width="60" height="30" as="geometry" />
        </mxCell>
        <mxCell id="q9Hn70hhjZPMbS5lLQ8r-22" value="theater 1" style="html=1;verticalLabelPosition=bottom;align=center;labelBackgroundColor=#ffffff;verticalAlign=top;strokeWidth=2;strokeColor=#0080F0;shadow=0;dashed=0;shape=mxgraph.ios7.icons.move_to_folder;" vertex="1" parent="1">
          <mxGeometry x="440" y="117.5" width="30" height="22.5" as="geometry" />
        </mxCell>
        <mxCell id="q9Hn70hhjZPMbS5lLQ8r-23" value="theater 2" style="html=1;verticalLabelPosition=bottom;align=center;labelBackgroundColor=#ffffff;verticalAlign=top;strokeWidth=2;strokeColor=#0080F0;shadow=0;dashed=0;shape=mxgraph.ios7.icons.move_to_folder;" vertex="1" parent="1">
          <mxGeometry x="440" y="197.5" width="30" height="22.5" as="geometry" />
        </mxCell>
        <mxCell id="q9Hn70hhjZPMbS5lLQ8r-24" value="theater 3" style="html=1;verticalLabelPosition=bottom;align=center;labelBackgroundColor=#ffffff;verticalAlign=top;strokeWidth=2;strokeColor=#0080F0;shadow=0;dashed=0;shape=mxgraph.ios7.icons.move_to_folder;" vertex="1" parent="1">
          <mxGeometry x="440" y="285.5" width="30" height="22.5" as="geometry" />
        </mxCell>
        <mxCell id="q9Hn70hhjZPMbS5lLQ8r-25" value="" style="endArrow=open;html=1;strokeWidth=1;endFill=0;endSize=20;rounded=0;entryX=-0.167;entryY=0.378;entryDx=0;entryDy=0;entryPerimeter=0;" edge="1" parent="1" target="q9Hn70hhjZPMbS5lLQ8r-23">
          <mxGeometry width="100" relative="1" as="geometry">
            <mxPoint x="310" y="207" as="sourcePoint" />
            <mxPoint x="376" y="140" as="targetPoint" />
          </mxGeometry>
        </mxCell>
        <mxCell id="q9Hn70hhjZPMbS5lLQ8r-26" value="" style="endArrow=open;html=1;strokeWidth=1;endFill=0;endSize=20;rounded=0;entryX=-0.167;entryY=0.378;entryDx=0;entryDy=0;entryPerimeter=0;" edge="1" parent="1">
          <mxGeometry width="100" relative="1" as="geometry">
            <mxPoint x="310" y="118.5" as="sourcePoint" />
            <mxPoint x="435" y="117.5" as="targetPoint" />
          </mxGeometry>
        </mxCell>
        <mxCell id="q9Hn70hhjZPMbS5lLQ8r-27" value="" style="endArrow=open;html=1;strokeWidth=1;endFill=0;endSize=20;rounded=0;entryX=-0.167;entryY=0.378;entryDx=0;entryDy=0;entryPerimeter=0;" edge="1" parent="1">
          <mxGeometry width="100" relative="1" as="geometry">
            <mxPoint x="310" y="286.5" as="sourcePoint" />
            <mxPoint x="435" y="285.5" as="targetPoint" />
            <Array as="points">
              <mxPoint x="370" y="285.5" />
            </Array>
          </mxGeometry>
        </mxCell>
        <mxCell id="q9Hn70hhjZPMbS5lLQ8r-28" value="8-1" style="outlineConnect=0;dashed=0;verticalLabelPosition=bottom;verticalAlign=top;align=center;html=1;shape=mxgraph.aws3.s3;fillColor=#E05243;gradientColor=none;" vertex="1" parent="1">
          <mxGeometry x="520" y="95" width="50" height="22.5" as="geometry" />
        </mxCell>
        <mxCell id="q9Hn70hhjZPMbS5lLQ8r-30" value="1-4" style="outlineConnect=0;dashed=0;verticalLabelPosition=bottom;verticalAlign=top;align=center;html=1;shape=mxgraph.aws3.s3;fillColor=#E05243;gradientColor=none;" vertex="1" parent="1">
          <mxGeometry x="580" y="95" width="50" height="22.5" as="geometry" />
        </mxCell>
        <mxCell id="q9Hn70hhjZPMbS5lLQ8r-39" value="6-9" style="outlineConnect=0;dashed=0;verticalLabelPosition=bottom;verticalAlign=top;align=center;html=1;shape=mxgraph.aws3.s3;fillColor=#E05243;gradientColor=none;" vertex="1" parent="1">
          <mxGeometry x="550" y="142.5" width="50" height="22.5" as="geometry" />
        </mxCell>
        <mxCell id="q9Hn70hhjZPMbS5lLQ8r-40" style="edgeStyle=orthogonalEdgeStyle;rounded=0;orthogonalLoop=1;jettySize=auto;html=1;exitX=0.5;exitY=1;exitDx=0;exitDy=0;exitPerimeter=0;" edge="1" parent="1" source="q9Hn70hhjZPMbS5lLQ8r-39" target="q9Hn70hhjZPMbS5lLQ8r-39">
          <mxGeometry relative="1" as="geometry" />
        </mxCell>
        <mxCell id="q9Hn70hhjZPMbS5lLQ8r-41" value="8-1" style="outlineConnect=0;dashed=0;verticalLabelPosition=bottom;verticalAlign=top;align=center;html=1;shape=mxgraph.aws3.s3;fillColor=#E05243;gradientColor=none;" vertex="1" parent="1">
          <mxGeometry x="520" y="197.5" width="50" height="22.5" as="geometry" />
        </mxCell>
        <mxCell id="q9Hn70hhjZPMbS5lLQ8r-66" style="edgeStyle=orthogonalEdgeStyle;rounded=0;orthogonalLoop=1;jettySize=auto;html=1;" edge="1" parent="1" source="q9Hn70hhjZPMbS5lLQ8r-42" target="q9Hn70hhjZPMbS5lLQ8r-54">
          <mxGeometry relative="1" as="geometry" />
        </mxCell>
        <mxCell id="q9Hn70hhjZPMbS5lLQ8r-42" value="1-4" style="outlineConnect=0;dashed=0;verticalLabelPosition=bottom;verticalAlign=top;align=center;html=1;shape=mxgraph.aws3.s3;fillColor=#E05243;gradientColor=none;" vertex="1" parent="1">
          <mxGeometry x="580" y="197.5" width="50" height="22.5" as="geometry" />
        </mxCell>
        <mxCell id="q9Hn70hhjZPMbS5lLQ8r-43" value="6-9" style="outlineConnect=0;dashed=0;verticalLabelPosition=bottom;verticalAlign=top;align=center;html=1;shape=mxgraph.aws3.s3;fillColor=#E05243;gradientColor=none;" vertex="1" parent="1">
          <mxGeometry x="550" y="245" width="50" height="22.5" as="geometry" />
        </mxCell>
        <mxCell id="q9Hn70hhjZPMbS5lLQ8r-44" style="edgeStyle=orthogonalEdgeStyle;rounded=0;orthogonalLoop=1;jettySize=auto;html=1;exitX=0.5;exitY=1;exitDx=0;exitDy=0;exitPerimeter=0;" edge="1" parent="1" source="q9Hn70hhjZPMbS5lLQ8r-43" target="q9Hn70hhjZPMbS5lLQ8r-43">
          <mxGeometry relative="1" as="geometry" />
        </mxCell>
        <mxCell id="q9Hn70hhjZPMbS5lLQ8r-45" value="8-1" style="outlineConnect=0;dashed=0;verticalLabelPosition=bottom;verticalAlign=top;align=center;html=1;shape=mxgraph.aws3.s3;fillColor=#E05243;gradientColor=none;" vertex="1" parent="1">
          <mxGeometry x="530" y="300" width="50" height="22.5" as="geometry" />
        </mxCell>
        <mxCell id="q9Hn70hhjZPMbS5lLQ8r-46" value="1-4" style="outlineConnect=0;dashed=0;verticalLabelPosition=bottom;verticalAlign=top;align=center;html=1;shape=mxgraph.aws3.s3;fillColor=#E05243;gradientColor=none;" vertex="1" parent="1">
          <mxGeometry x="590" y="300" width="50" height="22.5" as="geometry" />
        </mxCell>
        <mxCell id="q9Hn70hhjZPMbS5lLQ8r-47" value="6-9" style="outlineConnect=0;dashed=0;verticalLabelPosition=bottom;verticalAlign=top;align=center;html=1;shape=mxgraph.aws3.s3;fillColor=#E05243;gradientColor=none;" vertex="1" parent="1">
          <mxGeometry x="560" y="347.5" width="50" height="22.5" as="geometry" />
        </mxCell>
        <mxCell id="q9Hn70hhjZPMbS5lLQ8r-48" style="edgeStyle=orthogonalEdgeStyle;rounded=0;orthogonalLoop=1;jettySize=auto;html=1;exitX=0.5;exitY=1;exitDx=0;exitDy=0;exitPerimeter=0;" edge="1" parent="1" source="q9Hn70hhjZPMbS5lLQ8r-47" target="q9Hn70hhjZPMbS5lLQ8r-47">
          <mxGeometry relative="1" as="geometry" />
        </mxCell>
        <mxCell id="q9Hn70hhjZPMbS5lLQ8r-49" value="" style="endArrow=open;html=1;strokeWidth=1;endFill=0;endSize=20;rounded=0;" edge="1" parent="1">
          <mxGeometry width="100" relative="1" as="geometry">
            <mxPoint x="480" y="128.75" as="sourcePoint" />
            <mxPoint x="520" y="130" as="targetPoint" />
          </mxGeometry>
        </mxCell>
        <mxCell id="q9Hn70hhjZPMbS5lLQ8r-50" value="" style="endArrow=open;html=1;strokeWidth=1;endFill=0;endSize=20;rounded=0;" edge="1" parent="1">
          <mxGeometry width="100" relative="1" as="geometry">
            <mxPoint x="480" y="298.75" as="sourcePoint" />
            <mxPoint x="520" y="300" as="targetPoint" />
          </mxGeometry>
        </mxCell>
        <mxCell id="q9Hn70hhjZPMbS5lLQ8r-51" value="" style="endArrow=open;html=1;strokeWidth=1;endFill=0;endSize=20;rounded=0;" edge="1" parent="1">
          <mxGeometry width="100" relative="1" as="geometry">
            <mxPoint x="480" y="204.38" as="sourcePoint" />
            <mxPoint x="520" y="205.63" as="targetPoint" />
          </mxGeometry>
        </mxCell>
        <mxCell id="q9Hn70hhjZPMbS5lLQ8r-52" value="" style="image;html=1;image=img/lib/clip_art/people/Suit_Man_128x128.png" vertex="1" parent="1">
          <mxGeometry x="660" y="150.5" width="30" height="45" as="geometry" />
        </mxCell>
        <mxCell id="q9Hn70hhjZPMbS5lLQ8r-53" value="" style="image;html=1;image=img/lib/clip_art/people/Suit_Man_128x128.png" vertex="1" parent="1">
          <mxGeometry x="670" y="160.5" width="30" height="45" as="geometry" />
        </mxCell>
        <mxCell id="q9Hn70hhjZPMbS5lLQ8r-54" value="" style="image;html=1;image=img/lib/clip_art/people/Suit_Man_128x128.png" vertex="1" parent="1">
          <mxGeometry x="680" y="170.5" width="30" height="45" as="geometry" />
        </mxCell>
        <mxCell id="q9Hn70hhjZPMbS5lLQ8r-55" value="" style="image;html=1;image=img/lib/clip_art/people/Suit_Man_128x128.png" vertex="1" parent="1">
          <mxGeometry x="690" y="180.5" width="30" height="45" as="geometry" />
        </mxCell>
        <mxCell id="q9Hn70hhjZPMbS5lLQ8r-65" style="edgeStyle=orthogonalEdgeStyle;rounded=0;orthogonalLoop=1;jettySize=auto;html=1;" edge="1" parent="1" source="q9Hn70hhjZPMbS5lLQ8r-56" target="q9Hn70hhjZPMbS5lLQ8r-64">
          <mxGeometry relative="1" as="geometry" />
        </mxCell>
        <mxCell id="q9Hn70hhjZPMbS5lLQ8r-56" value="" style="image;html=1;image=img/lib/clip_art/people/Suit_Man_128x128.png" vertex="1" parent="1">
          <mxGeometry x="700" y="190.5" width="30" height="45" as="geometry" />
        </mxCell>
        <mxCell id="q9Hn70hhjZPMbS5lLQ8r-57" value="" style="image;html=1;image=img/lib/clip_art/people/Suit_Man_128x128.png" vertex="1" parent="1">
          <mxGeometry x="710" y="200.5" width="30" height="45" as="geometry" />
        </mxCell>
        <mxCell id="q9Hn70hhjZPMbS5lLQ8r-58" value="" style="image;html=1;image=img/lib/clip_art/people/Suit_Man_128x128.png" vertex="1" parent="1">
          <mxGeometry x="720" y="210.5" width="30" height="45" as="geometry" />
        </mxCell>
        <mxCell id="q9Hn70hhjZPMbS5lLQ8r-59" value="" style="image;html=1;image=img/lib/clip_art/people/Suit_Man_128x128.png" vertex="1" parent="1">
          <mxGeometry x="730" y="220.5" width="30" height="45" as="geometry" />
        </mxCell>
        <mxCell id="q9Hn70hhjZPMbS5lLQ8r-60" value="" style="image;html=1;image=img/lib/clip_art/people/Suit_Man_128x128.png" vertex="1" parent="1">
          <mxGeometry x="740" y="230.5" width="30" height="45" as="geometry" />
        </mxCell>
        <mxCell id="q9Hn70hhjZPMbS5lLQ8r-61" value="" style="image;html=1;image=img/lib/clip_art/people/Suit_Man_128x128.png" vertex="1" parent="1">
          <mxGeometry x="750" y="240.5" width="30" height="45" as="geometry" />
        </mxCell>
        <mxCell id="q9Hn70hhjZPMbS5lLQ8r-63" value="seat booking" style="text;html=1;align=center;verticalAlign=middle;resizable=0;points=[];autosize=1;strokeColor=none;fillColor=none;" vertex="1" parent="1">
          <mxGeometry x="685" y="298" width="90" height="30" as="geometry" />
        </mxCell>
        <mxCell id="q9Hn70hhjZPMbS5lLQ8r-64" value="Payment" style="html=1;whiteSpace=wrap;strokeColor=none;fillColor=#0079D6;labelPosition=center;verticalLabelPosition=middle;verticalAlign=top;align=center;fontSize=12;outlineConnect=0;spacingTop=-6;fontColor=#FFFFFF;sketch=0;shape=mxgraph.sitemap.payment;" vertex="1" parent="1">
          <mxGeometry x="810" y="173.75" width="120" height="70" as="geometry" />
        </mxCell>
        <mxCell id="q9Hn70hhjZPMbS5lLQ8r-68" value="&lt;h1&gt;Entities:&lt;/h1&gt;&lt;div&gt;1. user&lt;/div&gt;&lt;div&gt;2. cities&lt;/div&gt;&lt;div&gt;3. movies&lt;/div&gt;&lt;div&gt;4. theaters&lt;/div&gt;&lt;div&gt;5. shows&lt;/div&gt;&lt;div&gt;6. seats&lt;/div&gt;&lt;div&gt;7. payment&lt;/div&gt;&lt;div&gt;8. screens(hall)&lt;/div&gt;&lt;div&gt;9. Booking&lt;/div&gt;" style="text;html=1;strokeColor=none;fillColor=none;spacing=5;spacingTop=-20;whiteSpace=wrap;overflow=hidden;rounded=0;" vertex="1" parent="1">
          <mxGeometry x="20" y="420" width="190" height="200" as="geometry" />
        </mxCell>
        <mxCell id="q9Hn70hhjZPMbS5lLQ8r-69" value="shows" style="text;html=1;align=center;verticalAlign=middle;resizable=0;points=[];autosize=1;strokeColor=none;fillColor=none;" vertex="1" parent="1">
          <mxGeometry x="545" y="400" width="60" height="30" as="geometry" />
        </mxCell>
      </root>
    </mxGraphModel>
  </diagram>
</mxfile>
